<svg xmlns="http://www.w3.org/2000/svg" width="182" height="178" viewBox="0 0 182 178" fill="none"><path d="M91 59.5C105.196 59.5 117 49.631 117 37.5C117 25.369 105.196 15.5 91 15.5C76.804 15.5 65 25.369 65 37.5C65 49.631 76.804 59.5 91 59.5Z" fill="#61DAFB"/><path d="M106.2 41.1C115.86 46.76 120.72 54.2 120.72 61C120.72 67.8 115.86 75.24 106.2 80.9C96.54 86.56 84.55 91.01 71.78 93.08C59.01 95.15 46.21 94.74 36.55 90.09C26.89 85.44 20 76.14 20 66C20 55.86 26.89 46.56 36.55 41.91C46.21 37.26 59.01 36.85 71.78 38.92C84.55 40.99 96.54 45.44 106.2 51.1Z" fill="#61DAFB"/></svg>